<svg width="20" height="20" viewBox="0 0 20 20" fill="none" xmlns="http://www.w3.org/2000/svg">
<g clip-path="url(#clip0_311_107)">
<path d="M19.9617 4.61829L12.9467 11.6333C12.1645 12.4135 11.1048 12.8517 10 12.8517C8.89521 12.8517 7.83552 12.4135 7.05333 11.6333L0.0383333 4.61829C0.0266667 4.74995 0 4.86912 0 4.99995V15C0.00132321 16.1046 0.440735 17.1637 1.22185 17.9448C2.00296 18.7259 3.062 19.1653 4.16667 19.1666H15.8333C16.938 19.1653 17.997 18.7259 18.7782 17.9448C19.5593 17.1637 19.9987 16.1046 20 15V4.99995C20 4.86912 19.9733 4.74995 19.9617 4.61829Z" fill="#DDDDDD"/>
<path d="M11.7685 10.455L19.3801 2.84254C19.0114 2.23114 18.4913 1.72507 17.8701 1.37315C17.2489 1.02123 16.5474 0.835325 15.8335 0.833374H4.16678C3.4528 0.835325 2.75137 1.02123 2.13014 1.37315C1.50891 1.72507 0.988849 2.23114 0.620117 2.84254L8.23178 10.455C8.70143 10.9228 9.33727 11.1854 10.0001 11.1854C10.663 11.1854 11.2988 10.9228 11.7685 10.455Z" fill="#DDDDDD"/>
</g>
<defs>
<clipPath id="clip0_311_107">
<rect width="20" height="20" fill="white"/>
</clipPath>
</defs>
</svg>
