<svg width="20" height="20" viewBox="0 0 20 20" fill="none" xmlns="http://www.w3.org/2000/svg">
<path d="M19.9999 7.06661V16.6666C19.9999 16.8876 19.9121 17.0996 19.7558 17.2559C19.5996 17.4121 19.3876 17.4999 19.1666 17.4999C18.9456 17.4999 18.7336 17.4121 18.5773 17.2559C18.4211 17.0996 18.3333 16.8876 18.3333 16.6666V9.79328L12.1666 12.7399C11.5164 13.1237 10.7741 13.3236 10.0191 13.3183C9.2273 13.3195 8.4499 13.1067 7.76909 12.7024L1.61909 9.77495C1.13566 9.51498 0.730601 9.13039 0.445944 8.66108C0.161286 8.19176 0.00740274 7.65482 0.000260471 7.10597C-0.0068818 6.55713 0.132977 6.01636 0.405326 5.5398C0.677674 5.06324 1.07259 4.66823 1.54909 4.39578C1.57159 4.38245 1.59576 4.36995 1.61909 4.35828L7.83326 1.39328C8.50415 1.008 9.26556 0.808387 10.0392 0.814977C10.8128 0.821568 11.5707 1.03412 12.2349 1.43078L18.3808 4.35828C18.8657 4.6266 19.271 5.01852 19.5554 5.49422C19.8398 5.96992 19.9931 6.51243 19.9999 7.06661ZM10.0183 14.9833C8.95208 14.9856 7.9042 14.7062 6.98076 14.1733L3.33326 12.4324V14.6824C3.33375 15.572 3.61856 16.4382 4.14612 17.1545C4.67367 17.8708 5.41635 18.3997 6.26576 18.6641C7.47937 19.0126 8.73738 19.1819 9.99993 19.1666C11.2626 19.1808 12.5206 19.0104 13.7341 18.6608C14.5835 18.3964 15.3262 17.8675 15.8537 17.1512C16.3813 16.4349 16.6661 15.5687 16.6666 14.6791V12.4366L12.9508 14.2116C12.0588 14.7241 11.0469 14.9909 10.0183 14.9849V14.9833Z" fill="#DDDDDD"/>
</svg>
