<svg width="20" height="20" viewBox="0 0 20 20" fill="none" xmlns="http://www.w3.org/2000/svg">
<path d="M1.33926 15C2.02856 16.1963 3.55719 16.6073 4.75352 15.918C4.75434 15.9176 4.75512 15.9171 4.75594 15.9166L5.12676 15.7025C5.82676 16.3014 6.63137 16.7658 7.50008 17.0725V17.5C7.50008 18.8807 8.61938 20 10.0001 20C11.3808 20 12.5001 18.8807 12.5001 17.5V17.0725C13.3689 16.7654 14.1736 16.3004 14.8734 15.7008L15.2459 15.9158C16.4425 16.6062 17.9722 16.1958 18.6626 14.9991C19.3529 13.8025 18.9425 12.2728 17.7459 11.5825L17.3759 11.3691C17.5425 10.4629 17.5425 9.53379 17.3759 8.62746L17.7459 8.41414C18.9425 7.72379 19.3529 6.1941 18.6626 4.99746C17.9722 3.80086 16.4425 3.39043 15.2459 4.08078L14.8751 4.29496C14.1744 3.6968 13.3692 3.2332 12.5001 2.9275V2.5C12.5001 1.1193 11.3808 0 10.0001 0C8.61938 0 7.50008 1.1193 7.50008 2.5V2.9275C6.63125 3.23465 5.8266 3.69965 5.12676 4.29918L4.75426 4.08336C3.55762 3.39297 2.02793 3.8034 1.33758 5C0.64723 6.1966 1.05762 7.72633 2.25426 8.41668L2.62426 8.63C2.4577 9.53629 2.4577 10.4654 2.62426 11.3717L2.25426 11.585C1.06094 12.2772 0.651878 13.8039 1.33926 15ZM10.0001 6.66668C11.841 6.66668 13.3334 8.15906 13.3334 10C13.3334 11.8409 11.841 13.3333 10.0001 13.3333C8.15914 13.3333 6.66676 11.8409 6.66676 10C6.66676 8.15906 8.15914 6.66668 10.0001 6.66668Z" fill="#DDDDDD"/>
</svg>
